<svg id="Layer_1" data-name="Layer 1" xmlns="http://www.w3.org/2000/svg" viewBox="0 0 520.85 410.02"><defs><style>.cls-1,.cls-10,.cls-15,.cls-2{fill:#e8e2d9;}.cls-2{font-size:58.78px;font-family:Cinzel-Bold, Cinzel;font-weight:700;}.cls-3{letter-spacing:0em;}.cls-4{letter-spacing:-0.01em;}.cls-5{letter-spacing:-0.09em;}.cls-6{letter-spacing:-0.02em;}.cls-7{letter-spacing:0em;}.cls-8{letter-spacing:0em;}.cls-9{letter-spacing:-0.01em;}.cls-10{font-size:20.38px;font-family:Montserrat-SemiBold, Montserrat;}.cls-10,.cls-15{font-weight:600;}.cls-11{letter-spacing:-0.03em;}.cls-12{letter-spacing:0em;}.cls-13{letter-spacing:-0.02em;}.cls-14{letter-spacing:-0.01em;}.cls-15{font-size:16.67px;font-family:Cinzel-SemiBold, Cinzel;}</style></defs><path class="cls-1" d="M278.14,237.84a8.89,8.89,0,0,1-1.61-9.72,10,10,0,0,1,4.59-4.85,6.19,6.19,0,0,1-.56,5.36,5.66,5.66,0,0,0-.29,5.4,5.66,5.66,0,1,0,10-5.22c-.86-1.42-.84-3.37-.94-5.2a7.88,7.88,0,0,1,5,4.82,9,9,0,0,1-.49,7.74c-.88,1.82-.92,1.75.95,2.29a31.43,31.43,0,0,1,14.52,9.11c4.84,5.25,6.46,11.75,7.23,18.56.6,5.31,1,10.65,1.65,15.95,1,7.67,2.15,15.37,5.83,22.27,2.39,4.49,5.43,8.64,8.26,12.89a24.89,24.89,0,0,1,4.3,9.71,4.3,4.3,0,0,1-2.11,4.83,33.42,33.42,0,0,1-6.8,2.62c-8.48,2.14-17.16,2.73-25.87,3.12a332.24,332.24,0,0,1-42.8-.68,75.93,75.93,0,0,1-19.39-3.71c-5.4-1.93-6.61-4.79-3.94-10.45,1.88-4,4.74-7.45,7.21-11.12a48.77,48.77,0,0,0,8.16-19.84c1.26-8.26,2.14-16.57,3.05-24.87,1.29-11.68,6.28-20.92,17.07-26.38A67.94,67.94,0,0,1,278.14,237.84Zm-38.33,90.54.08.7a2.21,2.21,0,0,0,.52.36c2.46.69,4.9,1.53,7.4,2,11.33,2.13,22.82,2.41,34.31,2.66,1.13,0,1.15-.6,1.15-1.41,0-1.91,0-3.82,0-5.91,1.14,0,2.1.06,3.05,0,1.16-.1,1.68.26,1.59,1.51s.05,2.62-.07,3.92c-.14,1.52.44,2,1.93,1.95,11.21-.21,22.41-.48,33.47-2.43,2.75-.49,5.42-1.46,8.12-2.21v-.66a19.11,19.11,0,0,0-3.4-1.32A145.83,145.83,0,0,0,313.2,325c-21.08-1.8-42.17-2-63.17,1C246.58,326.53,243.21,327.59,239.81,328.38ZM238.49,324l.47.29c2.46-.6,4.9-1.35,7.39-1.76,11.54-1.9,23.21-2.35,34.85-2.4,17.06-.07,34.16-.12,50.8,4.06-.81-1.36-1.77-2.95-2.7-4.55a15.46,15.46,0,0,0-10.17-7.83,115.22,115.22,0,0,0-21.93-2.89c-2.64-.12-5.29,0-8.17,0,.69.84,1.26,1.67,1.94,2.38,2.63,2.76,5.52,5.13,9.51,5.53a7.35,7.35,0,0,0,2.23-.49c-.3-.61-.59-1.23-.87-1.85,0-.07.06-.19.17-.53a17.48,17.48,0,0,1,2.86,1.35c1.48,1,1.31,2.46-.37,3.06a8.93,8.93,0,0,1-3.17.46c-6.18-.19-10.43-3.69-14-8.33-1.6-2.09-1.79-2.08-3.44-.06-2.65,3.24-5.57,6.2-9.62,7.65a10.84,10.84,0,0,1-7.51.29c-1-.37-2.1-1.13-1.23-2.43a4.37,4.37,0,0,1,3.48-1.87c-.25.9-.44,1.62-.63,2.33a8.26,8.26,0,0,0,2.57.46c5.09-.79,8.25-4.29,11.63-8.31l-4.38.2c-9,.35-18.06.92-26.85,3.3-1.72.46-3.74,1-4.88,2.18C243.6,317.27,241.13,320.72,238.49,324Zm74.57-21.44a25.1,25.1,0,0,1-2.69,1.45c-3.79,1.47-10.06-.16-12.72-3.26a7,7,0,0,1-.77-8.4c1.72-3,6.35-3.49,8.19-.73a4.89,4.89,0,0,1,.45,3.48c-.15.66-1.36,1.17-2.19,1.54-.3.14-.87-.31-1.32-.49.19-.41.37-.82.57-1.23.3-.62.61-1.23.92-1.85-.87-.26-1.81-.87-2.58-.69-1.92.42-2.75,2.94-1.81,4.91a6.87,6.87,0,0,0,5.38,3.74,8.86,8.86,0,0,0,8.83-3,12.29,12.29,0,0,0,5.53,5.51c-1.05-3.55-5.93-12.35-7.19-13.15,1.66,5.94-1.49,8.92-5.47,8.53l1.44-1.55c2.87-3.13,1.54-8.71-2.53-9.91a11.13,11.13,0,0,0-9.47,1.37c-3.93,2.5-6.1,6.21-7.42,10.47a40.46,40.46,0,0,0-.93,5.87c12,.35,23.47.93,34.88,3.52a6.34,6.34,0,0,0-2.37-1.86C317.32,305.82,314.8,304.9,313.06,302.57ZM259.3,290l-.54-.34-6.93,13.65.57.44,5.5-5.21a34.15,34.15,0,0,0,3.87,2.13c3.63,1.46,8.18,0,9.88-3.13,1.16-2.12,0-5.17-2.14-5.24-.78,0-1.57.65-2.36,1,.35.53.71,1.06,1,1.61.23.4.39.83.59,1.25-.45.19-.9.55-1.34.53a3,3,0,0,1-2.38-3.81c.64-2,2.27-2.65,4-2.94a4.56,4.56,0,0,1,4.64,1.93,7,7,0,0,1-2,10.23c-4.41,2.66-9,3.89-13.7.47a16.16,16.16,0,0,1-7.36,4.51c-.69.22-1.22,1-1.82,1.45,3-.23,5.73-1,8.47-1.28,8.2-.79,16.41-1.41,24.63-2,1.26-.09,1.86-.44,1.49-1.72a65,65,0,0,0-2.41-8.09c-2.19-5.14-7.93-9.08-13.36-8.49-2.66.29-4.55,1.44-5.53,3.87a6,6,0,0,0,1.39,6.76c.41.43.79.88,1.31,1.46C259.74,299.1,257.79,295.72,259.3,290Zm53.64-24.08c0-1.58-1.11-2.12-2.24-2.39-3.19-.78-6.4-1.55-9.65-2.07a108.81,108.81,0,0,0-32.28,0,79.33,79.33,0,0,0-8.81,2c-1.09.27-2.23.76-2.19,2a41.61,41.61,0,0,1,6.75-1.58c2.59-.18,4.09,1.76,5.17,4.06a8.56,8.56,0,0,1,8.78-5.95,4.13,4.13,0,0,1,4.21,4.4c.05,2.38-1.3,3.93-3.1,5.17a5.53,5.53,0,0,0-2.32,6.7,40.33,40.33,0,0,0,2.07,5c1.75,3.74,3.58,7.45,5.33,11.2a19.88,19.88,0,0,1,.73,2.71c.3-.74.42-1,.51-1.24.92-2.48,1.68-5,2.79-7.43,1.33-2.88,3.14-5.54,4.4-8.44s1.31-5.73-1.44-8.06a14.24,14.24,0,0,1-2.92-3.28,4.15,4.15,0,0,1,2.56-6.32,11,11,0,0,1,5.12.46c2.47.78,3.7,3,4.76,5.27C303.4,264.08,305.2,262.31,312.94,265.93Zm-8.84,9.85c2-5.38,2.31-7.83,8.74-5.65a9.58,9.58,0,0,0-1.23-1.81,5.91,5.91,0,0,0-4.91-1.39c-2.91.45-3.81,2.66-4.28,5.08a17.24,17.24,0,0,1-5.83,10.29,68.09,68.09,0,0,0-5.27,5.59l.31.35a15.37,15.37,0,0,1,12.94-4.4c5,.45,8.52,3.34,11.28,7.35-2.62-6.49-7.22-9.93-14.47-9.32a5.8,5.8,0,0,1,7.06-1.92,50.53,50.53,0,0,1,6.37,4.16c-.54-2.7-1.11-5.59-1.71-8.58-2.05,2.08-3.43,2.55-5.06,1.78l2.35-2.42c.66-.68,1.68-1.36.71-2.4a2.1,2.1,0,0,0-3.07-.1,6.65,6.65,0,0,0-1.41,2.27C306.11,275.73,305.45,276.28,304.1,275.78ZM279.42,288.6l.39-.47c-1.86-2-3.6-4.2-5.63-6a17.45,17.45,0,0,1-5.87-10.43c-.69-4.18-3.78-5.78-7.72-4.27a3.42,3.42,0,0,0-2.34,2.71l1.42-.53a4.36,4.36,0,0,1,5.81,2.62l1.26,3.44c-1.47.47-1.88.26-2.47-1.27-.75-2-1.83-2.76-3.33-2.5-1.33.23-1.82,1.28-1,2.34a25,25,0,0,0,1.95,1.9c.35.36.66.78,1.11,1.32-2.3.72-3.71-.61-5.29-1.51-.57,2.91-1.12,5.69-1.6,8.15,2.11-1.36,4.16-3.14,6.55-4.08,3.16-1.25,6.23-.11,6.91,2.1a11.58,11.58,0,0,0-8.83,1.72,14.3,14.3,0,0,0-5.57,7.29c2.78-4.13,6.43-6.85,11.49-7.26A15,15,0,0,1,279.42,288.6ZM259,259.3a130,130,0,0,1,52.91.43,2.35,2.35,0,0,0-1-1.13,34.6,34.6,0,0,0-4.56-1.36,110.44,110.44,0,0,0-34.75-1.15c-3.48.42-6.92,1.24-10.35,2A8.78,8.78,0,0,0,259,259.3Zm15,18.53c-.14-4.82.38-6.54,4.79-8.49a1.21,1.21,0,0,0,.28-.18,2.75,2.75,0,0,0,.93-3.48c-.73-1.26-1.84-1.32-3.11-.93C272,266.25,270.26,273.49,274,277.83Zm22.66.5a6.8,6.8,0,0,0,2.12-5.13c.15-3-.4-5.79-3.2-7.58-2.22-1.42-3.81-1.4-4.63,0s-.27,2.68,2.15,4c3.09,1.77,4.33,4.2,3.79,7.43C296.81,277.44,296.75,277.74,296.63,278.33Z" transform="translate(-38.43 -156.01)"/><path class="cls-1" d="M311.88,242.51c-2.06-1.48-4-2.78-5.81-4.22a1.58,1.58,0,0,1-.18-1.51c3.08-4.42,6-9,9.4-13.14,5.53-6.76,12.68-11.42,20.71-14.78a51.54,51.54,0,0,1,27.26-3.37c14.72,2,26.82,9,36.2,20.43a55.46,55.46,0,0,1,12.83,30.49c.73,8.13.66,16.35.73,24.53.11,12.45,0,24.91.05,37.37,0,1.43-.13,2.24-1.91,2a26.29,26.29,0,0,0-4.94,0c-1,.06-1.26-.3-1.26-1.26q0-13.73,0-27.45c0-10.06.31-20.15-.25-30.18-.81-14.41-6.2-27-17.39-36.48-9.82-8.33-21.22-12.64-34.25-11.78A45.83,45.83,0,0,0,321.86,228a52.22,52.22,0,0,0-9.12,13.09C312.52,241.58,312.21,242,311.88,242.51Z" transform="translate(-38.43 -156.01)"/><path class="cls-1" d="M143.18,442.73a27.32,27.32,0,0,1,3.9,0,2.45,2.45,0,0,1,1.36,1.23c3.21,5.77,6.14,11.72,9.59,17.34a148.22,148.22,0,0,0,22.48,27.72,144.62,144.62,0,0,0,107.4,41.66,134.82,134.82,0,0,0,24.22-2.67,145.93,145.93,0,0,0,37.26-13.37,150,150,0,0,0,40-30.38,146.46,146.46,0,0,0,23.21-32.24c1.35-2.55,2.69-5.11,3.93-7.72.58-1.22,1.22-1.94,2.7-1.62a15.82,15.82,0,0,0,2.89,0A153.38,153.38,0,0,1,386,494c-27.6,25.61-60.11,40-98,41.37a147.62,147.62,0,0,1-65.86-12.72c-23.68-10.47-43.26-26.3-59.27-46.58A148.83,148.83,0,0,1,143.18,442.73Z" transform="translate(-38.43 -156.01)"/><path class="cls-1" d="M246.13,214.84c-1.85,1.66-3.52,3.27-5.32,4.71a2.25,2.25,0,0,1-1.91-.15c-8.43-4.78-17.43-7.22-27.13-6.24q-23.15,2.33-36.42,21.57c-7.34,10.67-9.87,22.54-9.6,35.37.34,16.09.07,32.19.13,48.29,0,1.6-.43,2.09-2,1.9a27.06,27.06,0,0,0-4.59,0c-1.12.07-1.5-.3-1.49-1.44,0-14.21,0-28.43,0-42.65,0-6-.25-12,.48-17.88,2.35-18.89,11.21-34.08,27.35-44.46a53.44,53.44,0,0,1,42.62-7.35,55.9,55.9,0,0,1,17.32,7.76A3.25,3.25,0,0,1,246.13,214.84Z" transform="translate(-38.43 -156.01)"/><path class="cls-1" d="M323.27,286.84c-.18-3-.43-5.53-.43-8.06a3,3,0,0,1,1.27-1.85c4.33-3.22,8.57-6.59,13.11-9.48a136.64,136.64,0,0,1,15.52-8.81c7.93-3.7,16.38-5.51,25.18-4.16,10,1.52,17.1,8.19,18.94,16.84,2.25,10.6-2.13,20.76-12.66,25.71-7.27,3.41-14.63,3.54-21.79-.43a14.91,14.91,0,0,1-7.56-14.69c.68-5.35,4.93-9.83,10.79-11.5a13.9,13.9,0,0,1,10.27.81c.3.14.71.25.87.5.47.72.83,1.5,1.24,2.26a12.78,12.78,0,0,1-2-.19,13.46,13.46,0,0,0-11.61,2.4c-5.59,4.13-5.19,11.25.83,14.76a15.55,15.55,0,0,0,12.52,1.3c6.08-1.7,10.66-5.13,12.41-11.43,2.51-9.08-1.44-15.88-10-18.76-6.45-2.16-13-1.4-19.25.78-13.43,4.65-24.78,12.74-35.35,22C324.93,285.42,324.28,286,323.27,286.84Z" transform="translate(-38.43 -156.01)"/><path class="cls-1" d="M193.31,294.24c1.33.09,2.65.22,4,.28a13.06,13.06,0,0,0,9.37-2.89c5.09-4.25,4.7-11.34-.92-14.83a14.8,14.8,0,0,0-12.51-1.33c-6.56,2-11.4,6-12.85,13-1.72,8.33,3.16,15.28,12,17.57,5.63,1.46,11.17.83,16.67-.69,10.78-3,20.14-8.55,28.58-15.74,3.15-2.69,6.09-5.62,9.14-8.44a9,9,0,0,1,1.1-.65c-.18,2.24-.48,4.12-.44,6,.07,3.43-2,5.39-4.36,7.42a84,84,0,0,1-27.7,16.7c-6.87,2.41-14,3.61-21.3,2.57-9.32-1.32-17.19-7.19-19.66-15.7-3.12-10.74,2.48-22,13-26.68,6.53-2.88,13.1-3.4,19.74-.16,8.12,4,11.11,13.33,6.54,20.84-3.66,6-12.56,8.37-18.67,4.91a12.39,12.39,0,0,1-2-1.78Z" transform="translate(-38.43 -156.01)"/><path class="cls-1" d="M226.56,291.66c0-7.84.16-15.69,0-23.53a62.73,62.73,0,0,1,5.28-27.39,60.55,60.55,0,0,1,12.58-18.31,57.88,57.88,0,0,1,22.25-14.08c3.58-1.23,7.34-1.94,11-2.89,1.1-.28,1.57.11,1.53,1.28,0,1.77,0,3.53.07,5.29.06,1-.32,1.3-1.21,1.45a49.13,49.13,0,0,0-29.1,15.37c-7.2,7.84-12.37,17-13.46,27.74-.74,7.21-.58,14.52-.78,21.78-.06,2.16,0,4.33,0,6.49a2.27,2.27,0,0,1-.45,1.53c-2.34,1.94-4.76,3.79-7.15,5.66Z" transform="translate(-38.43 -156.01)"/><path class="cls-1" d="M260.58,164.54l9.87,4.86a22.06,22.06,0,0,0-.91,3.35c-.48,4.25,3.21,8,7.14,7.27a5.3,5.3,0,0,0,4-7.31,49.48,49.48,0,0,0-2.68-5.09c-.22-.44-.49-1.17-.29-1.44,2.46-3.38,5-6.71,7.61-10.17l8.08,10.62a27.24,27.24,0,0,0-2.86,4.75,9.08,9.08,0,0,0-.5,4.9c.6,2.71,3.08,4.09,5.87,3.83A5.7,5.7,0,0,0,301,175a41.18,41.18,0,0,0-.37-5.57l9.74-5.15c-.7,2.23-1.27,4.07-1.86,5.9-1.56,4.86-3.17,9.69-4.66,14.57-.27.88-.6,1.16-1.49,1.16q-16.81,0-33.62,0c-.88,0-1.41-.13-1.74-1.14-2.11-6.52-4.31-13-6.47-19.51A2.72,2.72,0,0,1,260.58,164.54Zm24.64,7.3c.9-1.28,1.85-2.6,2.74-4a1,1,0,0,0,0-.91c-.8-1.2-1.66-2.37-2.68-3.81-1,1.46-1.79,2.66-2.53,3.91a1.24,1.24,0,0,0,.11,1.05C283.59,169.37,284.4,170.58,285.22,171.84Z" transform="translate(-38.43 -156.01)"/><path class="cls-1" d="M344,276.28v8.13c0,11.09,0,22.18,0,33.27,0,.88.7,2.24-.8,2.57-2.4.54-3.67,0-4.37-1.57a4.07,4.07,0,0,0-.62-1.21c-2-2.12-2.12-4.67-2.09-7.41.08-9,0-18,0-26.94,0-.47.07-1.15.38-1.38C338.72,280,341.12,278.31,344,276.28Z" transform="translate(-38.43 -156.01)"/><path class="cls-1" d="M330.31,226.06c2.33,3.79,4.56,7.25,6.6,10.82a57,57,0,0,1,6.65,20.06,1.93,1.93,0,0,1-.4,1.58c-2.2,1.38-4.48,2.64-6.94,4.05-.34-2.36-.6-4.53-1-6.68a48.78,48.78,0,0,0-10.35-23.18c-.58-.71-.72-1.18,0-1.83C326.61,229.44,328.22,227.94,330.31,226.06Z" transform="translate(-38.43 -156.01)"/><path class="cls-1" d="M144.35,297.94a4.77,4.77,0,0,1,1.63,5.49c-3,6.6-6.2,13.12-8.85,19.85a120.24,120.24,0,0,0-6.9,25.23c-.26,1.61-3.08,2.83-4.41,1.83a1.17,1.17,0,0,1-.32-1c1.72-6.81,3.22-13.68,5.3-20.37,1.89-6.11,4.25-12.08,6.72-18,1.78-4.22,4.09-8.22,6.18-12.31A3.39,3.39,0,0,1,144.35,297.94Z" transform="translate(-38.43 -156.01)"/><path class="cls-1" d="M445.61,350.47a21.33,21.33,0,0,1-3.63-.06c-.45-.09-1-.86-1.09-1.39-1.08-4.7-1.89-9.46-3.16-14.11a125.56,125.56,0,0,0-8.35-23c-1.51-3-2.94-6.12-4.39-9.19-.54-1.15.16-3.95,1.24-4.53a1.51,1.51,0,0,1,1.34.58c2.6,5.41,5.2,10.83,7.68,16.29a144.6,144.6,0,0,1,8.91,27.83C444.71,345.32,445.09,347.77,445.61,350.47Z" transform="translate(-38.43 -156.01)"/><path class="cls-1" d="M291.2,205.22a58.18,58.18,0,0,1,26.37,9.68c-1.87,1.82-3.61,3.57-5.44,5.2-.24.22-1-.06-1.5-.26-4-1.71-7.95-3.59-12-5.16a29.93,29.93,0,0,0-6.13-1.36c-1-.15-1.35-.44-1.31-1.48C291.26,209.7,291.2,207.56,291.2,205.22Z" transform="translate(-38.43 -156.01)"/><path class="cls-1" d="M294.8,341.34a9.44,9.44,0,0,1-4.17,8,8,8,0,0,1-9.14.48,9.86,9.86,0,0,1-5.28-8.47Z" transform="translate(-38.43 -156.01)"/><path class="cls-1" d="M302.61,189.39a18.91,18.91,0,0,1-.88,3.32,2,2,0,0,1-1.57.8c-7.9,0-15.8,0-23.7,0-1.93,0-3.87-.07-5.8.06-1.24.08-1.76-.35-1.88-1.56a22,22,0,0,0-.57-2.59Z" transform="translate(-38.43 -156.01)"/><path class="cls-1" d="M283.1,204.87a28.12,28.12,0,0,1,3.77.07c.33.05.78,1,.78,1.49.05,6.88,0,13.76,0,20.64,0,2.73-.9,3.48-3.57,2.83a1.9,1.9,0,0,1-1.18-1.31c-.07-7.73-.05-15.46,0-23.2A2,2,0,0,1,283.1,204.87Z" transform="translate(-38.43 -156.01)"/><path class="cls-1" d="M259.36,242.22c-2.17-3.3-4.3-6.49-6.32-9.73a1.69,1.69,0,0,1,.41-1.53c1.51-1.44,3.12-2.78,4.94-4.36a24.5,24.5,0,0,1,1.92,2.35c1.6,2.47,3.1,5,4.67,7.49.46.73.57,1.3-.24,1.88C262.9,239.62,261.09,241,259.36,242.22Z" transform="translate(-38.43 -156.01)"/><path class="cls-1" d="M234.87,305.77a77.6,77.6,0,0,1-.1,8.71c-.15,1.2-1.75,2.17-2.1,3.41-.79,2.75-2.84,2.51-4.86,2.38a1.53,1.53,0,0,1-1.06-1c-.07-2.61,0-5.23,0-7.84,0-.26.07-.65.25-.76C229.5,309.06,232,307.54,234.87,305.77Z" transform="translate(-38.43 -156.01)"/><path class="cls-1" d="M298.88,312.75c.59,1.09.88,1.61,1.17,2.16a2.81,2.81,0,0,1-3.46-2.15c-.25-1.31.7-2.15,2.5-2.27a13.19,13.19,0,0,1,11.24,4.57,13.2,13.2,0,0,0,2.69,2.31c1.64,1.06,2.24.73,2.52-1.22,1.17.17,2.24.76,2.09,1.92a2.82,2.82,0,0,1-2,1.67,5.64,5.64,0,0,1-3.39-.55c-1.6-.93-2.89-2.38-4.46-3.37a41.52,41.52,0,0,0-5.81-3C301.2,312.48,300.17,312.75,298.88,312.75Z" transform="translate(-38.43 -156.01)"/><path class="cls-1" d="M271,314.93l.7-1.73A3.26,3.26,0,0,0,268,313c-2.09,1.09-4,2.47-6,3.76-1.42.93-2.68,2.2-4.22,2.78-1.06.4-2.49,0-3.7-.26-.38-.09-.84-1-.78-1.49a2.22,2.22,0,0,1,1.13-1.3c.16-.1.7.69,1.13.81.69.19,1.62.46,2.11.15a17.1,17.1,0,0,0,3.41-2.77,12.62,12.62,0,0,1,10.9-4.09,3.15,3.15,0,0,1,2.25,1.39,2.79,2.79,0,0,1-.66,2.37c-.51.58-1.51.72-2.3,1.05Z" transform="translate(-38.43 -156.01)"/><path class="cls-1" d="M322.48,315.27c-.21,1-.31,1.41-.45,2.07-.48-.38-1-.58-1.12-.93a11.4,11.4,0,0,1-.52-2,5.57,5.57,0,0,1,2-.36,7.79,7.79,0,0,1,4.88,4.18c.94,1.7-.56,3.44-2.6,3.13a8.28,8.28,0,0,1-6.11-3.58c-1.13-1.7-2.5-3.19-4.88-3.42v1.76l-.63.58c-.32-.59-.61-1.19-.95-1.77-.71-1.19-.24-2.13,1.16-2.24a5.93,5.93,0,0,1,4.67,2.08c.89.87,1.6,1.95,2.56,2.72a14.7,14.7,0,0,0,3.22,1.8,1.26,1.26,0,0,0,1.18-.35,1.29,1.29,0,0,0,0-1.22C324.23,316.9,323.44,316.23,322.48,315.27Z" transform="translate(-38.43 -156.01)"/><path class="cls-1" d="M248.7,317.4l.45-1.75c-.44.05-.89,0-1.07.14a19.52,19.52,0,0,0-2,2.38c-.09.14.38.92.48.89a6.85,6.85,0,0,0,2.78-.83c1.46-1.15,2.64-2.65,4-3.87a6.6,6.6,0,0,1,2.74-1.55,2.87,2.87,0,0,1,2.47.67c.33.58-.29,1.7-.68,2.54-1.36-1.92-2.32-2-3.93-.39a31.51,31.51,0,0,0-2.56,3.18,6.06,6.06,0,0,1-5.54,2.37c-1.91-.08-3-1.76-1.92-3.29a17.34,17.34,0,0,1,4.17-3.83c.5-.36,1.6.11,2.43.21-.25.79-.45,1.61-.77,2.38C249.71,316.9,249.29,317,248.7,317.4Z" transform="translate(-38.43 -156.01)"/><path class="cls-1" d="M287.3,316.68,285.55,319l-2.09-2.31a18,18,0,0,1-1.87,1.35,3.67,3.67,0,0,1-1.36.19,4.67,4.67,0,0,1,.24-1.47c.22-.43.74-.69,1-1.09q1.58-2.07,3.1-4.17a10.82,10.82,0,0,0,.63-1.07c1.9,2.27,3.77,4.49,5.61,6.74.17.22.26.8.14.88a1.25,1.25,0,0,1-1,.24C289,317.77,288.06,317.15,287.3,316.68Z" transform="translate(-38.43 -156.01)"/><path class="cls-1" d="M296.42,303.25c-2.74.28-5-.79-5.41-2.27a6.14,6.14,0,0,1,2.77-6.28C292.11,298.47,293.55,301.08,296.42,303.25Z" transform="translate(-38.43 -156.01)"/><path class="cls-1" d="M274.51,303.16c2.48-2.22,4.56-4.53,2.57-8.34,1.92,1.08,3.23,4.51,2.7,6.15C279.3,302.45,277.18,303.46,274.51,303.16Z" transform="translate(-38.43 -156.01)"/><path class="cls-1" d="M285.41,289.85c-1.66-3-3.45-6.07-5.09-9.22a5.8,5.8,0,0,1,.59-6.14c1.38-2.06,2.94-4,4.56-6.17,1.65,2.44,3.33,4.76,4.83,7.19,1.25,2.05.85,4.15-.33,6.13-.67,1.13-1.41,2.21-2,3.35C287,286.61,286.23,288.27,285.41,289.85Z" transform="translate(-38.43 -156.01)"/><path class="cls-1" d="M286.78,262.66l-1,2.89-.65.1c-.33-1-.65-2-1-3l2.37-.54Z" transform="translate(-38.43 -156.01)"/><text class="cls-2" transform="translate(0 259.27) scale(0.77 1)">THE <tspan class="cls-3" x="141.71" y="0">B</tspan><tspan class="cls-4" x="181.09" y="0">R</tspan><tspan x="224.29" y="0">E</tspan><tspan class="cls-5" x="261.44" y="0">A</tspan><tspan x="298.41" y="0">THI</tspan><tspan class="cls-6" x="411.02" y="0">N</tspan><tspan class="cls-7" x="460.86" y="0">G </tspan><tspan class="cls-8" x="524.69" y="0">BE</tspan><tspan class="cls-9" x="600.98" y="0">L</tspan><tspan class="cls-7" x="636.9" y="0">L</tspan></text><text class="cls-10" transform="translate(169.39 291.61) scale(0.76 1)">BRE<tspan class="cls-11" x="44.07" y="0">A</tspan><tspan x="58.62" y="0">T</tspan><tspan class="cls-12" x="70.89" y="0">H</tspan><tspan class="cls-13" x="87.3" y="0">W</tspan><tspan x="110.17" y="0">ORK A</tspan><tspan class="cls-14" x="177.98" y="0">P</tspan><tspan x="192.57" y="0">P</tspan></text><text class="cls-15" transform="matrix(-0.47, -0.65, 0.81, -0.58, 110.68, 339.92)"> </text><text class="cls-15" transform="matrix(-0.45, -0.66, 0.83, -0.56, 108.77, 337.26)"> </text><text class="cls-15" transform="matrix(-0.44, -0.67, 0.84, -0.55, 106.91, 334.53)"> </text><text class="cls-15" transform="matrix(-0.42, -0.68, 0.85, -0.53, 105.12, 331.79)"> </text><text class="cls-15" transform="matrix(-0.41, -0.69, 0.86, -0.51, 103.4, 329.02)"> </text><text class="cls-15" transform="matrix(-0.39, -0.7, 0.87, -0.49, 101.73, 326.19)"> </text><text class="cls-15" transform="matrix(-0.38, -0.71, 0.88, -0.47, 100.12, 323.33)"> </text><text class="cls-15" transform="matrix(-0.15, -0.79, 0.98, -0.19, 98.68, 321.32)"> </text><text class="cls-15" transform="matrix(0.2, -0.78, 0.97, 0.24, 97.94, 320)"> </text><text class="cls-15" transform="matrix(0.46, -0.66, 0.82, 0.58, 97.38, 318.61)"> </text><text class="cls-15" transform="matrix(0.67, -0.44, 0.54, 0.84, 97.27, 317.56)"> </text><text class="cls-15" transform="matrix(0.79, -0.16, 0.2, 0.98, 97.7, 316.78)"> </text><text class="cls-15" transform="matrix(0.79, 0.14, -0.17, 0.99, 98.71, 316.5)"> </text><text class="cls-15" transform="matrix(0.71, 0.38, -0.47, 0.88, 100.06, 317.13)"> </text><text class="cls-15" transform="matrix(0.46, 0.65, -0.82, 0.58, 101.75, 317.36)">A</text><text class="cls-15" transform="matrix(0.41, 0.69, -0.86, 0.51, 106.79, 325.19)"> </text><text class="cls-15" transform="matrix(0.43, 0.67, -0.84, 0.54, 108.57, 328.33)">P</text><text class="cls-15" transform="matrix(0.48, 0.64, -0.8, 0.6, 113.41, 335.79)">E</text><text class="cls-15" transform="matrix(0.52, 0.61, -0.76, 0.65, 118.56, 342.65)">R</text><text class="cls-15" transform="matrix(0.56, 0.58, -0.72, 0.69, 125.07, 350.13)">S</text><text class="cls-15" transform="matrix(0.59, 0.55, -0.68, 0.73, 130.33, 355.66)">O</text><text class="cls-15" transform="matrix(0.63, 0.5, -0.62, 0.78, 139, 363.78)">N</text><text class="cls-15" transform="matrix(0.66, 0.45, -0.57, 0.82, 148.29, 371.12)">A</text><text class="cls-15" transform="matrix(0.69, 0.42, -0.52, 0.86, 156.51, 376.71)">L</text><text class="cls-15" transform="matrix(0.7, 0.39, -0.49, 0.87, 163.58, 380.95)"> </text><text class="cls-15" transform="matrix(0.71, 0.36, -0.45, 0.89, 166.73, 382.78)">R</text><text class="cls-15" transform="matrix(0.73, 0.32, -0.4, 0.92, 175.51, 387.21)">E</text><text class="cls-15" transform="matrix(0.75, 0.28, -0.35, 0.94, 183.35, 390.62)">S</text><text class="cls-15" transform="matrix(0.77, 0.24, -0.3, 0.96, 190.55, 393.4)">O</text><text class="cls-15" transform="matrix(0.78, 0.18, -0.22, 0.97, 201.94, 396.91)">U</text><text class="cls-15" transform="matrix(0.79, 0.12, -0.15, 0.99, 212.77, 399.35)">R</text><text class="cls-15" transform="matrix(0.8, 0.07, -0.09, 1, 222.32, 400.85)">C</text><text class="cls-15" transform="matrix(0.8, 0.03, -0.04, 1, 232.97, 401.81)">E</text><text class="cls-15" transform="matrix(0.8, 0, 0, 1, 241.39, 402.07)"> </text><text class="cls-15" transform="matrix(0.8, -0.02, 0.03, 1, 244.94, 402.11)">F</text><text class="cls-15" transform="matrix(0.8, -0.06, 0.08, 1, 252.86, 401.94)">O</text><text class="cls-15" transform="matrix(0.79, -0.12, 0.15, 0.99, 264.62, 401)">R</text><text class="cls-15" transform="matrix(0.78, -0.16, 0.2, 0.98, 274.57, 399.4)"> </text><text class="cls-15" transform="matrix(0.78, -0.2, 0.25, 0.97, 278.2, 398.73)">H</text><text class="cls-15" transform="matrix(0.76, -0.24, 0.3, 0.95, 289.47, 395.73)">I</text><text class="cls-15" transform="matrix(0.75, -0.28, 0.35, 0.94, 294.28, 394.29)">G</text><text class="cls-15" transform="matrix(0.73, -0.33, 0.41, 0.91, 304.78, 390.4)">H</text><text class="cls-15" transform="matrix(0.71, -0.37, 0.46, 0.89, 315.33, 385.5)"> </text><text class="cls-15" transform="matrix(0.7, -0.39, 0.49, 0.87, 318.55, 383.89)">P</text><text class="cls-15" transform="matrix(0.68, -0.43, 0.54, 0.84, 326.17, 379.6)">E</text><text class="cls-15" transform="matrix(0.65, -0.47, 0.58, 0.81, 333.38, 375.04)">R</text><text class="cls-15" transform="matrix(0.62, -0.5, 0.63, 0.78, 341.35, 369.27)">F</text><text class="cls-15" transform="matrix(0.59, -0.54, 0.68, 0.74, 347.61, 364.28)">O</text><text class="cls-15" transform="matrix(0.55, -0.58, 0.72, 0.69, 356.26, 356.3)">R</text><text class="cls-15" transform="matrix(0.51, -0.62, 0.77, 0.64, 363.22, 349.08)">M</text><text class="cls-15" transform="matrix(0.47, -0.65, 0.81, 0.58, 371.54, 338.89)">E</text><text class="cls-15" transform="matrix(0.42, -0.68, 0.85, 0.53, 376.53, 331.92)">R</text><text class="cls-15" transform="matrix(0.39, -0.7, 0.88, 0.48, 381.67, 323.48)">S</text></svg>